# xmcd CD database file
#
# Track frame offsets:
#	183
#	13345
#	26293
#	39028
#	52318
#	68203
#	82905
#	94073
#	110308
#	123293
#	138828
#	150135
#	163335
#	171733
#	181420
#	191560
#	201985
#	211753
#
# Disc length: 2962 seconds
#
# Revision: 3
# Processed by: cddbd v1.5.2PL0 Copyright (c) Steve Scherf et al.
# Submitted via: CDex 1.70beta2
#
DISCID=ef0b9012
DTITLE=Louisiana Red - The Lowdown Back Porch Blues
DYEAR=1962
DGENRE=Blues
TTITLE0=Ride On Red, Ride On (previously unissued alternate take)
TTITLE1=I Wonder Who (alternate take 3)
TTITLE2=Red's Dream
TTITLE3=Working Man Blues
TTITLE4=I'm Louisiana Red
TTITLE5=Sweet Alesse
TTITLE6=Keep Your Hands Off My Woman
TTITLE7=I'm A Roaming Stranger
TTITLE8=Ride On Red, Ride On
TTITLE9=I Wonder Who
TTITLE10=The Seventh Son
TTITLE11=Sad News
TTITLE12=Two Fifty Three
TTITLE13=Don't Cry
TTITLE14=Sugar Hips
TTITLE15=I'm Too Poor To Die
TTITLE16=Don't Cry (harmonica overdub version)
TTITLE17=Ride On Red, Ride On (previously unissued alternate take)
EXTD=YEAR: 1962
EXTT0=
EXTT1=
EXTT2=
EXTT3=
EXTT4=
EXTT5=
EXTT6=
EXTT7=
EXTT8=
EXTT9=
EXTT10=
EXTT11=
EXTT12=
EXTT13=
EXTT14=
EXTT15=
EXTT16=
EXTT17=
PLAYORDER=
